<svg width="29" height="29" viewBox="0 0 29 29" fill="none" xmlns="http://www.w3.org/2000/svg">
<path d="M27.6958 12.3958L25.7125 10.1292C25.2875 9.70417 25.0042 8.85417 25.0042 8.2875V6.02083C25.0042 4.4625 23.7292 3.32917 22.3125 3.32917H19.9042C19.3375 3.32917 18.4875 3.04583 18.0625 2.62083L15.7958 0.6375C14.8042 -0.2125 13.2458 -0.2125 12.2542 0.6375L10.1292 2.62083C9.70417 3.04583 8.85417 3.32917 8.2875 3.32917H5.87917C4.32083 3.32917 3.1875 4.60417 3.1875 6.02083V8.42917C3.1875 8.99583 2.90417 9.84583 2.47917 10.2708L0.6375 12.5375C-0.2125 13.5292 -0.2125 15.0875 0.6375 16.0792L2.47917 18.3458C2.90417 18.7708 3.1875 19.6208 3.1875 20.1875V22.5958C3.1875 24.1542 4.4625 25.2875 5.87917 25.2875H8.2875C8.85417 25.2875 9.70417 25.5708 10.1292 25.9958L12.3958 27.9792C13.3875 28.8292 14.9458 28.8292 15.9375 27.9792L18.2042 25.9958C18.6292 25.5708 19.4792 25.2875 20.0458 25.2875H22.4542C24.0125 25.2875 25.1458 24.0125 25.1458 22.5958V20.1875C25.1458 19.6208 25.4292 18.7708 25.8542 18.3458L27.8375 16.0792C28.5458 15.0875 28.5458 13.3875 27.6958 12.3958ZM20.0458 11.5458L13.2458 18.3458C13.1042 18.4875 12.8208 18.6292 12.5375 18.6292C12.2542 18.6292 11.9708 18.4875 11.8292 18.3458L8.42917 14.9458C8.00417 14.5208 8.00417 13.8125 8.42917 13.3875C8.85417 12.9625 9.5625 12.9625 9.9875 13.3875L12.6792 16.0792L18.4875 9.9875C18.9125 9.5625 19.6208 9.5625 20.0458 9.9875C20.4708 10.4125 20.4708 11.1208 20.0458 11.5458Z" fill="white"/>
</svg>
