<svg width="47" height="47" viewBox="0 0 47 47" fill="none" xmlns="http://www.w3.org/2000/svg">
<path d="M23.2254 0H23.1199C10.3511 0 0 10.3542 0 23.1267V23.2322C0 36.0048 10.3511 46.3589 23.1199 46.3589H23.2254C35.9942 46.3589 46.3453 36.0048 46.3453 23.2322V23.1267C46.3453 10.3542 35.9942 0 23.2254 0Z" fill="#393939"/>
<path d="M30.3423 9.43164H16.0018C12.0399 9.43164 8.81689 12.6556 8.81689 16.6186V29.742C8.81689 33.705 12.0399 36.929 16.0018 36.929H30.3423C34.3041 36.929 37.5272 33.705 37.5272 29.742V16.6186C37.5272 12.6556 34.3041 9.43164 30.3423 9.43164ZM11.3515 16.6186C11.3515 14.0541 13.4379 11.967 16.0018 11.967H30.3423C32.9061 11.967 34.9926 14.0541 34.9926 16.6186V29.742C34.9926 32.3066 32.9061 34.3936 30.3423 34.3936H16.0018C13.4379 34.3936 11.3515 32.3066 11.3515 29.742V16.6186Z" fill="white"/>
<path d="M23.1719 29.8636C26.8561 29.8636 29.8551 26.8654 29.8551 23.1785C29.8551 19.4916 26.8577 16.4934 23.1719 16.4934C19.4861 16.4934 16.4888 19.4916 16.4888 23.1785C16.4888 26.8654 19.4861 29.8636 23.1719 29.8636ZM23.1719 19.0304C25.4597 19.0304 27.3205 20.8917 27.3205 23.1801C27.3205 25.4686 25.4597 27.3299 23.1719 27.3299C20.8841 27.3299 19.0234 25.4686 19.0234 23.1801C19.0234 20.8917 20.8841 19.0304 23.1719 19.0304Z" fill="white"/>
<path d="M30.4748 17.5736C31.4668 17.5736 32.2754 16.7664 32.2754 15.7724C32.2754 14.7784 31.4685 13.9712 30.4748 13.9712C29.481 13.9712 28.6741 14.7784 28.6741 15.7724C28.6741 16.7664 29.481 17.5736 30.4748 17.5736Z" fill="white"/>
</svg>
