<svg width="47" height="47" viewBox="0 0 47 47" fill="none" xmlns="http://www.w3.org/2000/svg">
<path d="M23.2254 0H23.1199C10.3511 0 0 10.3542 0 23.1267V23.2323C0 36.0048 10.3511 46.3589 23.1199 46.3589H23.2254C35.9942 46.3589 46.3453 36.0048 46.3453 23.2323V23.1267C46.3453 10.3542 35.9942 0 23.2254 0Z" fill="#393939"/>
<path d="M11.0547 15.4083C10.4442 14.8414 10.1406 14.1398 10.1406 13.305C10.1406 12.4702 10.4459 11.7376 11.0547 11.1692C11.6653 10.6023 12.4511 10.3181 13.414 10.3181C14.3768 10.3181 15.1319 10.6023 15.7408 11.1692C16.3513 11.736 16.6549 12.449 16.6549 13.305C16.6549 14.1609 16.3497 14.8414 15.7408 15.4083C15.1303 15.9751 14.3557 16.2594 13.414 16.2594C12.4722 16.2594 11.6653 15.9751 11.0547 15.4083ZM16.1418 18.6599V36.0386H10.6521V18.6599H16.1418Z" fill="#FEFFFC"/>
<path d="M34.4162 20.3765C35.6129 21.6758 36.2104 23.4592 36.2104 25.7298V35.7315H30.9968V26.4347C30.9968 25.2897 30.6996 24.3996 30.107 23.7662C29.5143 23.1327 28.7155 22.8144 27.7153 22.8144C26.7151 22.8144 25.9162 23.1311 25.3235 23.7662C24.7309 24.3996 24.4337 25.2897 24.4337 26.4347V35.7315H19.1892V18.611H24.4337V20.8816C24.9647 20.1248 25.6808 19.5271 26.5803 19.0869C27.4798 18.6468 28.4914 18.4275 29.6166 18.4275C31.6203 18.4275 33.2212 19.0772 34.4162 20.3749V20.3765Z" fill="#FEFFFC"/>
</svg>
