<svg width="273" height="45" viewBox="0 0 273 45" fill="none" xmlns="http://www.w3.org/2000/svg">
<path d="M3.03333 34V11.705H8.03833V34H3.03333ZM17.631 34C15.9373 34 14.7366 33.9115 14.0289 33.7346C13.3211 33.5576 12.9672 33.3807 12.9672 33.2037L14.1047 30.36C14.8378 30.4358 16.1775 30.5243 18.1239 30.6254C20.0955 30.7013 22.5222 30.7392 25.4039 30.7392H27.2997C27.9316 30.7392 28.3235 30.5749 28.4751 30.2462C28.6521 29.8924 28.7405 29.4247 28.7405 28.8433C28.7405 28.2619 28.6394 27.7943 28.4372 27.4404C28.2603 27.0865 27.8811 26.9096 27.2997 26.9096H17.9722C16.2028 26.9096 14.9262 26.581 14.1426 25.9237C13.359 25.2413 12.9672 24.2301 12.9672 22.8904V21.3738C12.9672 21.0199 13.0051 20.6028 13.081 20.1225C13.1568 19.6422 13.3464 19.1619 13.6497 18.6817C13.953 18.2014 14.446 17.8096 15.1285 17.5062C15.811 17.1776 16.7589 17.0133 17.9722 17.0133H28.4372C29.9539 17.0133 31.0282 17.1018 31.6601 17.2788C32.2921 17.4557 32.608 17.6326 32.608 17.8096L32.2289 20.6533C31.4958 20.5775 30.1435 20.5017 28.1718 20.4258C26.2001 20.3247 23.7861 20.2742 20.9297 20.2742H19.0339C18.4019 20.2742 17.9975 20.4511 17.8205 20.805C17.6689 21.1336 17.593 21.5254 17.593 21.9804C17.593 22.4607 17.6689 22.8651 17.8205 23.1937C17.9975 23.4971 18.4019 23.6488 19.0339 23.6488H28.3614C30.0803 23.6488 31.3441 24.0026 32.153 24.7104C32.9619 25.4182 33.3664 26.3156 33.3664 27.4025V29.6396C33.3664 30.0946 33.3285 30.5749 33.2526 31.0804C33.2021 31.586 33.0251 32.0663 32.7218 32.5213C32.4185 32.951 31.9255 33.3049 31.243 33.5829C30.5605 33.861 29.6 34 28.3614 34H17.631ZM42.4169 34C40.4958 34 39.1055 33.5576 38.2461 32.6729C37.3866 31.7629 36.9569 30.5243 36.9569 28.9571C36.9569 27.314 37.3993 26.0501 38.284 25.1654C39.194 24.2807 40.5716 23.8383 42.4169 23.8383H44.3506C46.2465 23.8383 47.9527 23.8889 49.4694 23.99C50.9861 24.0911 52.2373 24.1922 53.2231 24.2933V21.7908C53.2231 21.5633 53.1979 21.3358 53.1473 21.1083C53.0968 20.8556 52.9451 20.6533 52.6923 20.5017C52.4395 20.35 52.0098 20.2742 51.4031 20.2742H49.5073C46.752 20.2742 44.4518 20.3247 42.6065 20.4258C40.7612 20.5017 39.51 20.5775 38.8527 20.6533L38.4356 17.7717C38.4356 17.4178 39.3962 17.2029 41.3173 17.1271C43.2384 17.0513 46.4487 17.0133 50.9481 17.0133H52.844C54.1079 17.0133 55.0811 17.1903 55.7636 17.5442C56.4461 17.8981 56.9263 18.3404 57.2044 18.8713C57.5077 19.4021 57.6847 19.9456 57.7352 20.5017C57.8111 21.0325 57.849 21.4875 57.849 21.8667V34H54.7398L53.2611 33.2417C52.1994 33.4186 50.9229 33.5956 49.4315 33.7725C47.9401 33.9242 46.2338 34 44.3127 34H42.4169ZM43.4027 30.7392H52.0856C52.6418 30.7392 52.9704 30.6886 53.0715 30.5875C53.1726 30.4864 53.2231 30.1704 53.2231 29.6396V26.72H43.4027C42.7202 26.72 42.24 26.8843 41.9619 27.2129C41.7091 27.5415 41.5827 28.0597 41.5827 28.7675C41.5827 29.4753 41.7344 29.9808 42.0377 30.2842C42.3411 30.5875 42.7961 30.7392 43.4027 30.7392ZM71.6921 34V14.7383L71.313 11.705H88.9063C90.9538 11.705 92.521 11.9578 93.608 12.4633C94.7202 12.9689 95.4911 13.7272 95.9209 14.7383C96.3506 15.7242 96.5655 16.9628 96.5655 18.4542V27.2129C96.5655 28.7296 96.3506 29.9935 95.9209 31.0046C95.5164 31.9904 94.7581 32.7361 93.6459 33.2417C92.5589 33.7472 90.9791 34 88.9063 34H71.6921ZM76.6971 30.36H88.6029C90.5493 30.36 91.5352 29.4626 91.5604 27.6679V17.9992C91.5604 17.2661 91.3456 16.6468 90.9159 16.1413C90.4861 15.6104 89.7152 15.345 88.6029 15.345H76.6971V30.36ZM105.994 34C104.073 34 102.683 33.5576 101.823 32.6729C100.964 31.7629 100.534 30.5243 100.534 28.9571C100.534 27.314 100.976 26.0501 101.861 25.1654C102.771 24.2807 104.149 23.8383 105.994 23.8383H107.928C109.824 23.8383 111.53 23.8889 113.046 23.99C114.563 24.0911 115.814 24.1922 116.8 24.2933V21.7908C116.8 21.5633 116.775 21.3358 116.724 21.1083C116.674 20.8556 116.522 20.6533 116.269 20.5017C116.017 20.35 115.587 20.2742 114.98 20.2742H113.084C110.329 20.2742 108.029 20.3247 106.184 20.4258C104.338 20.5017 103.087 20.5775 102.43 20.6533L102.013 17.7717C102.013 17.4178 102.973 17.2029 104.894 17.1271C106.815 17.0513 110.026 17.0133 114.525 17.0133H116.421C117.685 17.0133 118.658 17.1903 119.341 17.5442C120.023 17.8981 120.503 18.3404 120.781 18.8713C121.085 19.4021 121.262 19.9456 121.312 20.5017C121.388 21.0325 121.426 21.4875 121.426 21.8667V34H118.317L116.838 33.2417C115.776 33.4186 114.5 33.5956 113.009 33.7725C111.517 33.9242 109.811 34 107.89 34H105.994ZM106.98 30.7392H115.663C116.219 30.7392 116.547 30.6886 116.649 30.5875C116.75 30.4864 116.8 30.1704 116.8 29.6396V26.72H106.98C106.297 26.72 105.817 26.8843 105.539 27.2129C105.286 27.5415 105.16 28.0597 105.16 28.7675C105.16 29.4753 105.311 29.9808 105.615 30.2842C105.918 30.5875 106.373 30.7392 106.98 30.7392ZM138.275 40.6733C135.494 40.6733 133.232 40.6481 131.488 40.5975C129.744 40.5469 128.404 40.4711 127.469 40.37C126.533 40.2689 125.889 40.1425 125.535 39.9908C125.206 39.8392 125.042 39.6749 125.042 39.4979L126.18 36.6542C126.584 36.7806 127.292 36.9322 128.303 37.1092C129.339 37.3114 130.654 37.4125 132.246 37.4125H138.73C139.665 37.4125 140.322 37.2735 140.702 36.9954C141.106 36.7174 141.308 36.2244 141.308 35.5167V33.2417C140.221 33.4439 138.932 33.6208 137.441 33.7725C135.975 33.9242 134.281 34 132.36 34H130.464C129.2 34 128.227 33.8357 127.545 33.5071C126.862 33.1785 126.369 32.7614 126.066 32.2558C125.788 31.7503 125.611 31.2194 125.535 30.6633C125.484 30.1072 125.459 29.6017 125.459 29.1467V21.8667C125.459 21.4875 125.484 21.0325 125.535 20.5017C125.611 19.9456 125.788 19.4021 126.066 18.8713C126.369 18.3404 126.862 17.8981 127.545 17.5442C128.252 17.1903 129.226 17.0133 130.464 17.0133H132.398C135.052 17.0133 137.112 17.0639 138.578 17.165C140.07 17.2661 141.157 17.3799 141.839 17.5062L142.825 17.0133H145.934V35.82C145.934 36.275 145.858 36.7806 145.707 37.3367C145.58 37.8928 145.315 38.4236 144.91 38.9292C144.506 39.4347 143.925 39.8518 143.166 40.1804C142.408 40.509 141.409 40.6733 140.171 40.6733H138.275ZM131.905 30.7392H140.133C140.714 30.7392 141.056 30.6886 141.157 30.5875C141.258 30.4864 141.308 30.1578 141.308 29.6017V20.5396C140.449 20.489 139.362 20.4385 138.047 20.3879C136.733 20.3121 135.33 20.2742 133.839 20.2742H131.905C130.692 20.2742 130.085 20.7797 130.085 21.7908V29.2225C130.06 30.2336 130.666 30.7392 131.905 30.7392ZM155.124 34C153.86 34 152.887 33.8357 152.204 33.5071C151.522 33.1785 151.029 32.7614 150.726 32.2558C150.447 31.7503 150.271 31.2194 150.195 30.6633C150.144 30.1072 150.119 29.6017 150.119 29.1467V21.8667C150.119 21.4875 150.144 21.0325 150.195 20.5017C150.271 19.9456 150.447 19.4021 150.726 18.8713C151.029 18.3404 151.522 17.8981 152.204 17.5442C152.912 17.1903 153.885 17.0133 155.124 17.0133H163.276C164.944 17.0133 166.246 17.1776 167.181 17.5062C168.142 17.8096 168.812 18.3151 169.191 19.0229C169.595 19.7307 169.798 20.6786 169.798 21.8667V27.4783H163.162C160.887 27.4783 159.029 27.4278 157.588 27.3267C156.173 27.2256 155.225 27.1624 154.745 27.1371V29.2225C154.719 30.2336 155.326 30.7392 156.565 30.7392H158.498C159.863 30.7392 161.191 30.7265 162.48 30.7013C163.794 30.6507 164.995 30.6001 166.082 30.5496C167.169 30.4738 168.041 30.4106 168.698 30.36L170.215 32.8246C170.215 33.6082 167.725 34 162.745 34H155.124ZM154.745 24.2175H165.172V21.7908C165.172 21.2853 165.109 20.9314 164.982 20.7292C164.881 20.5269 164.552 20.4006 163.996 20.35C163.44 20.2994 162.492 20.2742 161.153 20.2742H156.565C155.351 20.2742 154.745 20.7797 154.745 21.7908V24.2175ZM178.295 34C176.602 34 175.401 33.9115 174.693 33.7346C173.986 33.5576 173.632 33.3807 173.632 33.2037L174.769 30.36C175.502 30.4358 176.842 30.5243 178.788 30.6254C180.76 30.7013 183.187 30.7392 186.068 30.7392H187.964C188.596 30.7392 188.988 30.5749 189.14 30.2462C189.317 29.8924 189.405 29.4247 189.405 28.8433C189.405 28.2619 189.304 27.7943 189.102 27.4404C188.925 27.0865 188.546 26.9096 187.964 26.9096H178.637C176.867 26.9096 175.591 26.581 174.807 25.9237C174.023 25.2413 173.632 24.2301 173.632 22.8904V21.3738C173.632 21.0199 173.67 20.6028 173.745 20.1225C173.821 19.6422 174.011 19.1619 174.314 18.6817C174.617 18.2014 175.11 17.8096 175.793 17.5062C176.475 17.1776 177.423 17.0133 178.637 17.0133H189.102C190.618 17.0133 191.693 17.1018 192.325 17.2788C192.957 17.4557 193.272 17.6326 193.272 17.8096L192.893 20.6533C192.16 20.5775 190.808 20.5017 188.836 20.4258C186.865 20.3247 184.451 20.2742 181.594 20.2742H179.698C179.066 20.2742 178.662 20.4511 178.485 20.805C178.333 21.1336 178.257 21.5254 178.257 21.9804C178.257 22.4607 178.333 22.8651 178.485 23.1937C178.662 23.4971 179.066 23.6488 179.698 23.6488H189.026C190.745 23.6488 192.009 24.0026 192.817 24.7104C193.626 25.4182 194.031 26.3156 194.031 27.4025V29.6396C194.031 30.0946 193.993 30.5749 193.917 31.0804C193.867 31.586 193.69 32.0663 193.386 32.5213C193.083 32.951 192.59 33.3049 191.907 33.5829C191.225 33.861 190.264 34 189.026 34H178.295ZM204.788 34C202.866 34 201.552 33.5956 200.844 32.7867C200.136 31.9778 199.783 30.7644 199.783 29.1467V20.2742H196.673V17.0133H198.266C198.746 17.0133 199.087 16.9375 199.29 16.7858C199.517 16.6342 199.681 16.3308 199.783 15.8758L200.541 11.8188H204.408V17.0133H212.295V20.2742H204.408V29.1846C204.408 29.8165 204.56 30.2336 204.863 30.4358C205.167 30.6381 205.622 30.7392 206.228 30.7392H211.575L211.954 33.6208C211.423 33.6967 210.614 33.7851 209.527 33.8863C208.44 33.9621 207.252 34 205.963 34H204.788ZM220.225 34C218.304 34 216.914 33.5576 216.054 32.6729C215.195 31.7629 214.765 30.5243 214.765 28.9571C214.765 27.314 215.208 26.0501 216.092 25.1654C217.002 24.2807 218.38 23.8383 220.225 23.8383H222.159C224.055 23.8383 225.761 23.8889 227.278 23.99C228.794 24.0911 230.046 24.1922 231.032 24.2933V21.7908C231.032 21.5633 231.006 21.3358 230.956 21.1083C230.905 20.8556 230.754 20.6533 230.501 20.5017C230.248 20.35 229.818 20.2742 229.212 20.2742H227.316C224.56 20.2742 222.26 20.3247 220.415 20.4258C218.57 20.5017 217.318 20.5775 216.661 20.6533L216.244 17.7717C216.244 17.4178 217.205 17.2029 219.126 17.1271C221.047 17.0513 224.257 17.0133 228.757 17.0133H230.652C231.916 17.0133 232.889 17.1903 233.572 17.5442C234.254 17.8981 234.735 18.3404 235.013 18.8713C235.316 19.4021 235.493 19.9456 235.544 20.5017C235.619 21.0325 235.657 21.4875 235.657 21.8667V34H232.548L231.069 33.2417C230.008 33.4186 228.731 33.5956 227.24 33.7725C225.749 33.9242 224.042 34 222.121 34H220.225ZM221.211 30.7392H229.894C230.45 30.7392 230.779 30.6886 230.88 30.5875C230.981 30.4864 231.032 30.1704 231.032 29.6396V26.72H221.211C220.529 26.72 220.048 26.8843 219.77 27.2129C219.518 27.5415 219.391 28.0597 219.391 28.7675C219.391 29.4753 219.543 29.9808 219.846 30.2842C220.149 30.5875 220.604 30.7392 221.211 30.7392ZM240.032 34V17.0133H243.141L244.658 17.7717C245.719 17.5694 246.996 17.3925 248.487 17.2408C249.979 17.0892 251.685 17.0133 253.606 17.0133H255.502C256.766 17.0133 257.739 17.1903 258.421 17.5442C259.104 17.8981 259.584 18.3404 259.862 18.8713C260.165 19.4021 260.342 19.9456 260.393 20.5017C260.469 21.0325 260.507 21.4875 260.507 21.8667V34H255.881V21.7908C255.881 20.7797 255.274 20.2742 254.061 20.2742H245.795C245.315 20.2742 244.999 20.3247 244.847 20.4258C244.721 20.5017 244.658 20.7292 244.658 21.1083V34H240.032ZM267.57 14.6246C266.634 14.6246 265.952 14.435 265.522 14.0558C265.092 13.6767 264.878 13.0447 264.878 12.16C264.878 11.25 265.08 10.6181 265.484 10.2642C265.914 9.885 266.609 9.69542 267.57 9.69542C268.53 9.69542 269.225 9.885 269.655 10.2642C270.085 10.6181 270.3 11.25 270.3 12.16C270.3 13.0194 270.085 13.6514 269.655 14.0558C269.225 14.435 268.53 14.6246 267.57 14.6246ZM265.257 34V17.0133H269.883V34H265.257Z" fill="white"/>
<path d="M72.0417 40.7603H271.104" stroke="#FCDA8D" stroke-width="3.79167"/>
</svg>
