<svg width="47" height="47" viewBox="0 0 47 47" fill="none" xmlns="http://www.w3.org/2000/svg">
<path d="M23.2254 0H23.1199C10.3511 0 0 10.3542 0 23.1267V23.2322C0 36.0048 10.3511 46.3589 23.1199 46.3589H23.2254C35.9942 46.3589 46.3453 36.0048 46.3453 23.2322V23.1267C46.3453 10.3542 35.9942 0 23.2254 0Z" fill="#393939"/>
<path d="M8.77793 22.3893C8.84288 22.3569 8.90786 22.326 8.97118 22.2968C10.0721 21.7868 11.1875 21.3093 12.3014 20.8318C12.3615 20.8318 12.4621 20.7619 12.5189 20.7392C12.605 20.7018 12.6911 20.6661 12.7771 20.6287C12.9427 20.5573 13.1084 20.4874 13.2724 20.416C13.6036 20.2747 13.9332 20.1334 14.2644 19.9921L16.247 19.1426C17.5686 18.5774 18.892 18.0106 20.2137 17.4453C21.5354 16.8801 22.8587 16.3133 24.1804 15.7481C25.5021 15.1829 26.8254 14.616 28.1471 14.0508C29.4688 13.4856 30.7921 12.9188 32.1138 12.3535C32.4077 12.2269 32.7259 12.0385 33.0409 11.9832C33.3056 11.9361 33.5637 11.8452 33.83 11.7948C34.335 11.699 34.8919 11.66 35.3758 11.8695C35.543 11.9426 35.6973 12.045 35.8255 12.1733C36.4393 12.7807 36.3532 13.7779 36.2233 14.6323C35.3189 20.5865 34.4145 26.5424 33.5085 32.4966C33.3851 33.3136 33.2163 34.2101 32.5716 34.7266C32.0261 35.1635 31.2499 35.2122 30.5761 35.0271C29.9023 34.8403 29.308 34.4489 28.7251 34.0639C26.3074 32.4625 23.8881 30.8611 21.4704 29.2596C20.8956 28.8796 20.2559 28.3826 20.2624 27.6923C20.2656 27.2765 20.5141 26.9062 20.7674 26.5765C22.8684 23.8349 25.8999 21.9508 28.1552 19.3359C28.4734 18.9672 28.7235 18.3013 28.2867 18.0885C28.0269 17.9618 27.7281 18.134 27.4911 18.298C24.51 20.3689 21.5305 22.4413 18.5494 24.5121C17.5768 25.1878 16.5571 25.883 15.3848 26.0486C14.3359 26.198 13.2805 25.9057 12.2657 25.6068C11.4149 25.3567 10.5656 25.1001 9.71969 24.8354C9.26992 24.6957 8.80554 24.5446 8.45807 24.2279C8.1106 23.9112 7.91091 23.3785 8.12036 22.9562C8.25188 22.6914 8.50681 22.5241 8.77472 22.3877L8.77793 22.3893Z" fill="#FEFFFC"/>
</svg>
