<svg width="29" height="28" viewBox="0 0 29 28" fill="currentColor" xmlns="http://www.w3.org/2000/svg">
<path d="M21.5254 0H7.18487C3.22305 0 0 3.22399 0 7.18699V20.3104C0 24.2733 3.22305 27.4973 7.18487 27.4973H21.5254C25.4872 27.4973 28.7103 24.2733 28.7103 20.3104V7.18699C28.7103 3.22399 25.4872 0 21.5254 0ZM2.5346 7.18699C2.5346 4.62241 4.62105 2.53534 7.18487 2.53534H21.5254C24.0892 2.53534 26.1757 4.62241 26.1757 7.18699V20.3104C26.1757 22.8749 24.0892 24.962 21.5254 24.962H7.18487C4.62105 24.962 2.5346 22.8749 2.5346 20.3104V7.18699Z" fill="white"/>
<path d="M14.355 20.4323C18.0392 20.4323 21.0382 17.434 21.0382 13.7471C21.0382 10.0602 18.0408 7.06201 14.355 7.06201C10.6692 7.06201 7.67188 10.0602 7.67188 13.7471C7.67188 17.434 10.6692 20.4323 14.355 20.4323ZM14.355 9.59898C16.6428 9.59898 18.5036 11.4603 18.5036 13.7488C18.5036 16.0372 16.6428 17.8985 14.355 17.8985C12.0672 17.8985 10.2065 16.0372 10.2065 13.7488C10.2065 11.4603 12.0672 9.59898 14.355 9.59898Z" fill="white"/>
<path d="M21.6579 8.14199C22.6499 8.14199 23.4585 7.33477 23.4585 6.34077C23.4585 5.34677 22.6516 4.53955 21.6579 4.53955C20.6642 4.53955 19.8572 5.34677 19.8572 6.34077C19.8572 7.33477 20.6642 8.14199 21.6579 8.14199Z" fill="white"/>
</svg>
