<svg width="31" height="24" viewBox="0 0 31 24" fill="none" xmlns="http://www.w3.org/2000/svg">
<path d="M9.888 11.52V11.136C9.888 8.064 12.32 5.632 15.392 5.632H15.776L18.976 2.432C17.824 2.176 16.672 1.92 15.392 1.92C8.864 2.048 3.36 6.784 0.672 9.472C-0.224 10.496 -0.224 12.032 0.672 12.928C1.696 13.952 3.104 15.232 4.896 16.512L9.888 11.52ZM24.352 4.864L26.912 2.304C27.424 1.792 27.424 0.896 26.912 0.384C26.4 -0.128 25.504 -0.128 24.992 0.384L4.64 20.736C4.128 21.248 4.128 22.144 4.64 22.656C5.152 23.168 6.048 23.168 6.56 22.656L9.888 19.328C11.552 19.968 13.344 20.352 15.264 20.352C21.664 20.352 27.296 15.616 29.856 12.928C30.752 12.032 30.752 10.496 29.856 9.472C28.832 8.192 26.784 6.4 24.352 4.864ZM15.392 16.64C14.624 16.64 13.728 16.512 13.088 16.128L15.648 13.568C16.8 13.44 17.568 12.544 17.824 11.392L20.384 8.832C20.64 9.472 20.896 10.24 20.896 11.136C20.896 14.208 18.464 16.64 15.392 16.64Z" fill="white"/>
</svg>
