<svg width="30" height="28" viewBox="0 0 30 28" fill="none" xmlns="http://www.w3.org/2000/svg">
<path fill-rule="evenodd" clip-rule="evenodd" d="M5.21044 23.4443V25.1806C5.21044 26.6121 4.03762 27.7849 2.60431 27.7849C1.171 27.7849 0 26.6121 0 25.1806V23.4443C0 22.0111 1.17281 20.8382 2.60431 20.8382C4.03581 20.8382 5.21044 22.011 5.21044 23.4443ZM10.8691 13.8933C9.43587 13.8933 8.263 15.0644 8.263 16.4976V25.1805C8.263 26.612 9.43581 27.7848 10.8691 27.7848C12.3024 27.7848 13.4734 26.612 13.4734 25.1805V16.4976C13.4734 15.0644 12.3006 13.8933 10.8691 13.8933ZM19.1321 6.94669C17.6989 6.94669 16.5278 8.11775 16.5278 9.551V25.1805C16.5278 26.612 17.6989 27.7848 19.1321 27.7848C20.5654 27.7848 21.7364 26.612 21.7364 25.1805V9.551C21.7364 8.11775 20.5654 6.94669 19.1321 6.94669ZM27.3951 0C25.9618 0 24.7908 1.17281 24.7908 2.60431V25.1805C24.7908 26.612 25.9618 27.7848 27.3951 27.7848C28.8283 27.7848 29.9994 26.612 29.9994 25.1805V2.60437C29.9994 1.17287 28.8283 0 27.3951 0Z" fill="white"/>
</svg>
