<svg width="47" height="47" viewBox="0 0 47 47" fill="none" xmlns="http://www.w3.org/2000/svg">
<path d="M46.3436 23.1803C46.3436 34.8874 37.6682 44.5658 26.3981 46.1364C25.3443 46.2826 24.2662 46.3589 23.1718 46.3589C21.9086 46.3589 20.6681 46.2582 19.46 46.0633C8.427 44.2865 0 34.7168 0 23.1803C0 10.3785 10.3754 0 23.1734 0C35.9715 0 46.3469 10.3785 46.3469 23.1803H46.3436Z" fill="#393939"/>
<path d="M9.39592 10.2239L20.0831 24.5167L9.32935 36.1376H11.7503L21.1661 25.9638L28.7732 36.1376H37.0102L25.7222 21.0409L35.7323 10.2239H33.3114L24.6408 19.5938L17.6346 10.2239H9.39753H9.39592ZM12.9551 12.0072H16.7383L33.4478 34.3543H29.6646L12.9551 12.0072Z" fill="white"/>
</svg>
