<svg display="none" xmlns="http://www.w3.org/2000/svg" aria-hidden="true"
    style="position: absolute; width: 0; height: 0; overflow: hidden;" version="1.1">
  <symbol id="instagram" viewBox="0 0 47 47">
    <path d="M23.2254 0H23.1199C10.3511 0 0 10.3542 0 23.1267V23.2322C0 36.0048 10.3511 46.3589 23.1199 46.3589H23.2254C35.9942 46.3589 46.3453 36.0048 46.3453 23.2322V23.1267C46.3453 10.3542 35.9942 0 23.2254 0Z" fill="#393939"/>
    <path d="M30.3423 9.43164H16.0018C12.0399 9.43164 8.81689 12.6556 8.81689 16.6186V29.742C8.81689 33.705 12.0399 36.929 16.0018 36.929H30.3423C34.3041 36.929 37.5272 33.705 37.5272 29.742V16.6186C37.5272 12.6556 34.3041 9.43164 30.3423 9.43164ZM11.3515 16.6186C11.3515 14.0541 13.4379 11.967 16.0018 11.967H30.3423C32.9061 11.967 34.9926 14.0541 34.9926 16.6186V29.742C34.9926 32.3066 32.9061 34.3936 30.3423 34.3936H16.0018C13.4379 34.3936 11.3515 32.3066 11.3515 29.742V16.6186Z" fill="white"/>
    <path d="M23.1719 29.8636C26.8561 29.8636 29.8551 26.8654 29.8551 23.1785C29.8551 19.4916 26.8577 16.4934 23.1719 16.4934C19.4861 16.4934 16.4888 19.4916 16.4888 23.1785C16.4888 26.8654 19.4861 29.8636 23.1719 29.8636ZM23.1719 19.0304C25.4597 19.0304 27.3205 20.8917 27.3205 23.1801C27.3205 25.4686 25.4597 27.3299 23.1719 27.3299C20.8841 27.3299 19.0234 25.4686 19.0234 23.1801C19.0234 20.8917 20.8841 19.0304 23.1719 19.0304Z" fill="white"/>
    <path d="M30.4748 17.5736C31.4668 17.5736 32.2754 16.7664 32.2754 15.7724C32.2754 14.7784 31.4685 13.9712 30.4748 13.9712C29.481 13.9712 28.6741 14.7784 28.6741 15.7724C28.6741 16.7664 29.481 17.5736 30.4748 17.5736Z" fill="white"/>
  </symbol>
  <symbol id="x" viewBox="0 0 47 47">
    <path class="x-bg" d="M46.3436 23.1803C46.3436 34.8874 37.6682 44.5658 26.3981 46.1364C25.3443 46.2826 24.2662 46.3589 23.1718 46.3589C21.9086 46.3589 20.6681 46.2582 19.46 46.0633C8.427 44.2865 0 34.7168 0 23.1803C0 10.3785 10.3754 0 23.1734 0C35.9715 0 46.3469 10.3785 46.3469 23.1803H46.3436Z" fill="#393939"/>
    <path class="x-fg" d="M9.39592 10.2239L20.0831 24.5167L9.32935 36.1376H11.7503L21.1661 25.9638L28.7732 36.1376H37.0102L25.7222 21.0409L35.7323 10.2239H33.3114L24.6408 19.5938L17.6346 10.2239H9.39753H9.39592ZM12.9551 12.0072H16.7383L33.4478 34.3543H29.6646L12.9551 12.0072Z" fill="white"/>
  </symbol>
  <symbol id="telegram" viewBox="0 0 47 47">
    <path class="tg-bg" d="M23.2254 0H23.1199C10.3511 0 0 10.3542 0 23.1267V23.2322C0 36.0048 10.3511 46.3589 23.1199 46.3589H23.2254C35.9942 46.3589 46.3453 36.0048 46.3453 23.2322V23.1267C46.3453 10.3542 35.9942 0 23.2254 0Z" fill="#393939"/>
    <path class="tg-fg" d="M8.77793 22.3893C8.84288 22.3569 8.90786 22.326 8.97118 22.2968C10.0721 21.7868 11.1875 21.3093 12.3014 20.8318C12.3615 20.8318 12.4621 20.7619 12.5189 20.7392C12.605 20.7018 12.6911 20.6661 12.7771 20.6287C12.9427 20.5573 13.1084 20.4874 13.2724 20.416C13.6036 20.2747 13.9332 20.1334 14.2644 19.9921L16.247 19.1426C17.5686 18.5774 18.892 18.0106 20.2137 17.4453C21.5354 16.8801 22.8587 16.3133 24.1804 15.7481C25.5021 15.1829 26.8254 14.616 28.1471 14.0508C29.4688 13.4856 30.7921 12.9188 32.1138 12.3535C32.4077 12.2269 32.7259 12.0385 33.0409 11.9832C33.3056 11.9361 33.5637 11.8452 33.83 11.7948C34.335 11.699 34.8919 11.66 35.3758 11.8695C35.543 11.9426 35.6973 12.045 35.8255 12.1733C36.4393 12.7807 36.3532 13.7779 36.2233 14.6323C35.3189 20.5865 34.4145 26.5424 33.5085 32.4966C33.3851 33.3136 33.2163 34.2101 32.5716 34.7266C32.0261 35.1635 31.2499 35.2122 30.5761 35.0271C29.9023 34.8403 29.308 34.4489 28.7251 34.0639C26.3074 32.4625 23.8881 30.8611 21.4704 29.2596C20.8956 28.8796 20.2559 28.3826 20.2624 27.6923C20.2656 27.2765 20.5141 26.9062 20.7674 26.5765C22.8684 23.8349 25.8999 21.9508 28.1552 19.3359C28.4734 18.9672 28.7235 18.3013 28.2867 18.0885C28.0269 17.9618 27.7281 18.134 27.4911 18.298C24.51 20.3689 21.5305 22.4413 18.5494 24.5121C17.5768 25.1878 16.5571 25.883 15.3848 26.0486C14.3359 26.198 13.2805 25.9057 12.2657 25.6068C11.4149 25.3567 10.5656 25.1001 9.71969 24.8354C9.26992 24.6957 8.80554 24.5446 8.45807 24.2279C8.1106 23.9112 7.91091 23.3785 8.12036 22.9562C8.25188 22.6914 8.50681 22.5241 8.77472 22.3877L8.77793 22.3893Z" fill="#FEFFFC"/>
  </symbol>
  <symbol id="linkedIn" viewBox="0 0 47 47">
    <path class="linked-bg" d="M23.2254 0H23.1199C10.3511 0 0 10.3542 0 23.1267V23.2323C0 36.0048 10.3511 46.3589 23.1199 46.3589H23.2254C35.9942 46.3589 46.3453 36.0048 46.3453 23.2323V23.1267C46.3453 10.3542 35.9942 0 23.2254 0Z" fill="#393939"/>
    <path class="linked-fg" d="M11.0547 15.4083C10.4442 14.8414 10.1406 14.1398 10.1406 13.305C10.1406 12.4702 10.4459 11.7376 11.0547 11.1692C11.6653 10.6023 12.4511 10.3181 13.414 10.3181C14.3768 10.3181 15.1319 10.6023 15.7408 11.1692C16.3513 11.736 16.6549 12.449 16.6549 13.305C16.6549 14.1609 16.3497 14.8414 15.7408 15.4083C15.1303 15.9751 14.3557 16.2594 13.414 16.2594C12.4722 16.2594 11.6653 15.9751 11.0547 15.4083ZM16.1418 18.6599V36.0386H10.6521V18.6599H16.1418Z" fill="#FEFFFC"/>
    <path class="linked-fg" d="M34.4162 20.3765C35.6129 21.6758 36.2104 23.4592 36.2104 25.7298V35.7315H30.9968V26.4347C30.9968 25.2897 30.6996 24.3996 30.107 23.7662C29.5143 23.1327 28.7155 22.8144 27.7153 22.8144C26.7151 22.8144 25.9162 23.1311 25.3235 23.7662C24.7309 24.3996 24.4337 25.2897 24.4337 26.4347V35.7315H19.1892V18.611H24.4337V20.8816C24.9647 20.1248 25.6808 19.5271 26.5803 19.0869C27.4798 18.6468 28.4914 18.4275 29.6166 18.4275C31.6203 18.4275 33.2212 19.0772 34.4162 20.3749V20.3765Z" fill="#FEFFFC"/>
  </symbol>
  <symbol id="arrow" viewBox="0 0 14 14">
    <path class="arrow-bg" d="M0.707092 13L12.7071 1M12.7071 1H0.707092M12.7071 1V13" stroke="#222222" stroke-width="2"/>
  </symbol>
</svg>