<svg display="none" xmlns="http://www.w3.org/2000/svg" aria-hidden="true"
  style="position: absolute; width: 0; height: 0; overflow: hidden;" version="1.1">
  <symbol id="instagram" viewBox="0 0 47 47">
    <path
      d="M23.2254 0H23.1199C10.3511 0 0 10.3542 0 23.1267V23.2322C0 36.0048 10.3511 46.3589 23.1199 46.3589H23.2254C35.9942 46.3589 46.3453 36.0048 46.3453 23.2322V23.1267C46.3453 10.3542 35.9942 0 23.2254 0Z"
      fill="#393939" />
    <path
      d="M30.3423 9.43164H16.0018C12.0399 9.43164 8.81689 12.6556 8.81689 16.6186V29.742C8.81689 33.705 12.0399 36.929 16.0018 36.929H30.3423C34.3041 36.929 37.5272 33.705 37.5272 29.742V16.6186C37.5272 12.6556 34.3041 9.43164 30.3423 9.43164ZM11.3515 16.6186C11.3515 14.0541 13.4379 11.967 16.0018 11.967H30.3423C32.9061 11.967 34.9926 14.0541 34.9926 16.6186V29.742C34.9926 32.3066 32.9061 34.3936 30.3423 34.3936H16.0018C13.4379 34.3936 11.3515 32.3066 11.3515 29.742V16.6186Z"
      fill="white" />
    <path
      d="M23.1719 29.8636C26.8561 29.8636 29.8551 26.8654 29.8551 23.1785C29.8551 19.4916 26.8577 16.4934 23.1719 16.4934C19.4861 16.4934 16.4888 19.4916 16.4888 23.1785C16.4888 26.8654 19.4861 29.8636 23.1719 29.8636ZM23.1719 19.0304C25.4597 19.0304 27.3205 20.8917 27.3205 23.1801C27.3205 25.4686 25.4597 27.3299 23.1719 27.3299C20.8841 27.3299 19.0234 25.4686 19.0234 23.1801C19.0234 20.8917 20.8841 19.0304 23.1719 19.0304Z"
      fill="white" />
    <path
      d="M30.4748 17.5736C31.4668 17.5736 32.2754 16.7664 32.2754 15.7724C32.2754 14.7784 31.4685 13.9712 30.4748 13.9712C29.481 13.9712 28.6741 14.7784 28.6741 15.7724C28.6741 16.7664 29.481 17.5736 30.4748 17.5736Z"
      fill="white" />
  </symbol>
  <symbol id="x" viewBox="0 0 47 47">
    <path class="x-bg"
      d="M46.3436 23.1803C46.3436 34.8874 37.6682 44.5658 26.3981 46.1364C25.3443 46.2826 24.2662 46.3589 23.1718 46.3589C21.9086 46.3589 20.6681 46.2582 19.46 46.0633C8.427 44.2865 0 34.7168 0 23.1803C0 10.3785 10.3754 0 23.1734 0C35.9715 0 46.3469 10.3785 46.3469 23.1803H46.3436Z"
      fill="#393939" />
    <path class="x-fg"
      d="M9.39592 10.2239L20.0831 24.5167L9.32935 36.1376H11.7503L21.1661 25.9638L28.7732 36.1376H37.0102L25.7222 21.0409L35.7323 10.2239H33.3114L24.6408 19.5938L17.6346 10.2239H9.39753H9.39592ZM12.9551 12.0072H16.7383L33.4478 34.3543H29.6646L12.9551 12.0072Z"
      fill="white" />
  </symbol>
  <symbol id="telegram" viewBox="0 0 47 47">
    <path class="tg-bg"
      d="M23.2254 0H23.1199C10.3511 0 0 10.3542 0 23.1267V23.2322C0 36.0048 10.3511 46.3589 23.1199 46.3589H23.2254C35.9942 46.3589 46.3453 36.0048 46.3453 23.2322V23.1267C46.3453 10.3542 35.9942 0 23.2254 0Z"
      fill="#393939" />
    <path class="tg-fg"
      d="M8.77793 22.3893C8.84288 22.3569 8.90786 22.326 8.97118 22.2968C10.0721 21.7868 11.1875 21.3093 12.3014 20.8318C12.3615 20.8318 12.4621 20.7619 12.5189 20.7392C12.605 20.7018 12.6911 20.6661 12.7771 20.6287C12.9427 20.5573 13.1084 20.4874 13.2724 20.416C13.6036 20.2747 13.9332 20.1334 14.2644 19.9921L16.247 19.1426C17.5686 18.5774 18.892 18.0106 20.2137 17.4453C21.5354 16.8801 22.8587 16.3133 24.1804 15.7481C25.5021 15.1829 26.8254 14.616 28.1471 14.0508C29.4688 13.4856 30.7921 12.9188 32.1138 12.3535C32.4077 12.2269 32.7259 12.0385 33.0409 11.9832C33.3056 11.9361 33.5637 11.8452 33.83 11.7948C34.335 11.699 34.8919 11.66 35.3758 11.8695C35.543 11.9426 35.6973 12.045 35.8255 12.1733C36.4393 12.7807 36.3532 13.7779 36.2233 14.6323C35.3189 20.5865 34.4145 26.5424 33.5085 32.4966C33.3851 33.3136 33.2163 34.2101 32.5716 34.7266C32.0261 35.1635 31.2499 35.2122 30.5761 35.0271C29.9023 34.8403 29.308 34.4489 28.7251 34.0639C26.3074 32.4625 23.8881 30.8611 21.4704 29.2596C20.8956 28.8796 20.2559 28.3826 20.2624 27.6923C20.2656 27.2765 20.5141 26.9062 20.7674 26.5765C22.8684 23.8349 25.8999 21.9508 28.1552 19.3359C28.4734 18.9672 28.7235 18.3013 28.2867 18.0885C28.0269 17.9618 27.7281 18.134 27.4911 18.298C24.51 20.3689 21.5305 22.4413 18.5494 24.5121C17.5768 25.1878 16.5571 25.883 15.3848 26.0486C14.3359 26.198 13.2805 25.9057 12.2657 25.6068C11.4149 25.3567 10.5656 25.1001 9.71969 24.8354C9.26992 24.6957 8.80554 24.5446 8.45807 24.2279C8.1106 23.9112 7.91091 23.3785 8.12036 22.9562C8.25188 22.6914 8.50681 22.5241 8.77472 22.3877L8.77793 22.3893Z"
      fill="#FEFFFC" />
  </symbol>
  <symbol id="linkedIn" viewBox="0 0 47 47">
    <path class="linked-bg"
      d="M23.2254 0H23.1199C10.3511 0 0 10.3542 0 23.1267V23.2323C0 36.0048 10.3511 46.3589 23.1199 46.3589H23.2254C35.9942 46.3589 46.3453 36.0048 46.3453 23.2323V23.1267C46.3453 10.3542 35.9942 0 23.2254 0Z"
      fill="#393939" />
    <path class="linked-fg"
      d="M11.0547 15.4083C10.4442 14.8414 10.1406 14.1398 10.1406 13.305C10.1406 12.4702 10.4459 11.7376 11.0547 11.1692C11.6653 10.6023 12.4511 10.3181 13.414 10.3181C14.3768 10.3181 15.1319 10.6023 15.7408 11.1692C16.3513 11.736 16.6549 12.449 16.6549 13.305C16.6549 14.1609 16.3497 14.8414 15.7408 15.4083C15.1303 15.9751 14.3557 16.2594 13.414 16.2594C12.4722 16.2594 11.6653 15.9751 11.0547 15.4083ZM16.1418 18.6599V36.0386H10.6521V18.6599H16.1418Z"
      fill="#FEFFFC" />
    <path class="linked-fg"
      d="M34.4162 20.3765C35.6129 21.6758 36.2104 23.4592 36.2104 25.7298V35.7315H30.9968V26.4347C30.9968 25.2897 30.6996 24.3996 30.107 23.7662C29.5143 23.1327 28.7155 22.8144 27.7153 22.8144C26.7151 22.8144 25.9162 23.1311 25.3235 23.7662C24.7309 24.3996 24.4337 25.2897 24.4337 26.4347V35.7315H19.1892V18.611H24.4337V20.8816C24.9647 20.1248 25.6808 19.5271 26.5803 19.0869C27.4798 18.6468 28.4914 18.4275 29.6166 18.4275C31.6203 18.4275 33.2212 19.0772 34.4162 20.3749V20.3765Z"
      fill="#FEFFFC" />
  </symbol>
  <symbol id="arrow" viewBox="0 0 14 14">
    <path class="arrow-bg" d="M0.707092 13L12.7071 1M12.7071 1H0.707092M12.7071 1V13" stroke="#222222"
      stroke-width="2" />
  </symbol>
  <symbol id="play" viewBox="0 0 54 54">
    <path
      d="M45.75 23.4915C48.4167 25.0311 48.4167 28.8801 45.75 30.4197L6 53.3693C3.33333 54.9089 -2.6458e-06 52.9844 -2.5112e-06 49.9052L-5.04881e-07 4.00589C-3.70285e-07 0.926692 3.33333 -0.997811 6 0.54179L45.75 23.4915Z"
      fill="white" />
  </symbol>
  <symbol id="secret" viewBox="0 0 31 24">
    <path
      d="M9.888 11.52V11.136C9.888 8.064 12.32 5.632 15.392 5.632H15.776L18.976 2.432C17.824 2.176 16.672 1.92 15.392 1.92C8.864 2.048 3.36 6.784 0.672 9.472C-0.224 10.496 -0.224 12.032 0.672 12.928C1.696 13.952 3.104 15.232 4.896 16.512L9.888 11.52ZM24.352 4.864L26.912 2.304C27.424 1.792 27.424 0.896 26.912 0.384C26.4 -0.128 25.504 -0.128 24.992 0.384L4.64 20.736C4.128 21.248 4.128 22.144 4.64 22.656C5.152 23.168 6.048 23.168 6.56 22.656L9.888 19.328C11.552 19.968 13.344 20.352 15.264 20.352C21.664 20.352 27.296 15.616 29.856 12.928C30.752 12.032 30.752 10.496 29.856 9.472C28.832 8.192 26.784 6.4 24.352 4.864ZM15.392 16.64C14.624 16.64 13.728 16.512 13.088 16.128L15.648 13.568C16.8 13.44 17.568 12.544 17.824 11.392L20.384 8.832C20.64 9.472 20.896 10.24 20.896 11.136C20.896 14.208 18.464 16.64 15.392 16.64Z"
      fill="white" />
  </symbol>
  <symbol id="check-mark" viewBox="0 0 29 29">
    <path
      d="M27.6958 12.3958L25.7125 10.1292C25.2875 9.70417 25.0042 8.85417 25.0042 8.2875V6.02083C25.0042 4.4625 23.7292 3.32917 22.3125 3.32917H19.9042C19.3375 3.32917 18.4875 3.04583 18.0625 2.62083L15.7958 0.6375C14.8042 -0.2125 13.2458 -0.2125 12.2542 0.6375L10.1292 2.62083C9.70417 3.04583 8.85417 3.32917 8.2875 3.32917H5.87917C4.32083 3.32917 3.1875 4.60417 3.1875 6.02083V8.42917C3.1875 8.99583 2.90417 9.84583 2.47917 10.2708L0.6375 12.5375C-0.2125 13.5292 -0.2125 15.0875 0.6375 16.0792L2.47917 18.3458C2.90417 18.7708 3.1875 19.6208 3.1875 20.1875V22.5958C3.1875 24.1542 4.4625 25.2875 5.87917 25.2875H8.2875C8.85417 25.2875 9.70417 25.5708 10.1292 25.9958L12.3958 27.9792C13.3875 28.8292 14.9458 28.8292 15.9375 27.9792L18.2042 25.9958C18.6292 25.5708 19.4792 25.2875 20.0458 25.2875H22.4542C24.0125 25.2875 25.1458 24.0125 25.1458 22.5958V20.1875C25.1458 19.6208 25.4292 18.7708 25.8542 18.3458L27.8375 16.0792C28.5458 15.0875 28.5458 13.3875 27.6958 12.3958ZM20.0458 11.5458L13.2458 18.3458C13.1042 18.4875 12.8208 18.6292 12.5375 18.6292C12.2542 18.6292 11.9708 18.4875 11.8292 18.3458L8.42917 14.9458C8.00417 14.5208 8.00417 13.8125 8.42917 13.3875C8.85417 12.9625 9.5625 12.9625 9.9875 13.3875L12.6792 16.0792L18.4875 9.9875C18.9125 9.5625 19.6208 9.5625 20.0458 9.9875C20.4708 10.4125 20.4708 11.1208 20.0458 11.5458Z"
      fill="white" />
  </symbol>
  <symbol id="signal" viewBox="0 0 30 28">
    <path fill-rule="evenodd" clip-rule="evenodd"
      d="M5.21044 23.4443V25.1806C5.21044 26.6121 4.03762 27.7849 2.60431 27.7849C1.171 27.7849 0 26.6121 0 25.1806V23.4443C0 22.0111 1.17281 20.8382 2.60431 20.8382C4.03581 20.8382 5.21044 22.011 5.21044 23.4443ZM10.8691 13.8933C9.43587 13.8933 8.263 15.0644 8.263 16.4976V25.1805C8.263 26.612 9.43581 27.7848 10.8691 27.7848C12.3024 27.7848 13.4734 26.612 13.4734 25.1805V16.4976C13.4734 15.0644 12.3006 13.8933 10.8691 13.8933ZM19.1321 6.94669C17.6989 6.94669 16.5278 8.11775 16.5278 9.551V25.1805C16.5278 26.612 17.6989 27.7848 19.1321 27.7848C20.5654 27.7848 21.7364 26.612 21.7364 25.1805V9.551C21.7364 8.11775 20.5654 6.94669 19.1321 6.94669ZM27.3951 0C25.9618 0 24.7908 1.17281 24.7908 2.60431V25.1805C24.7908 26.612 25.9618 27.7848 27.3951 27.7848C28.8283 27.7848 29.9994 26.612 29.9994 25.1805V2.60437C29.9994 1.17287 28.8283 0 27.3951 0Z"
      fill="white" />
  </symbol>
  <symbol id="download" viewBox="0 0 16 16">
    <path
      d="M8 12L3 7L4.4 5.55L7 8.15V0H9V8.15L11.6 5.55L13 7L8 12ZM2 16C1.45 16 0.979333 15.8043 0.588 15.413C0.196666 15.0217 0.000666667 14.5507 0 14V11H2V14H14V11H16V14C16 14.55 15.8043 15.021 15.413 15.413C15.0217 15.805 14.5507 16.0007 14 16H2Z"
      fill="#222222" />
  </symbol>
  <symbol id="googlePlay" viewBox="0 0 34 38">
    <path fill-rule="evenodd" clip-rule="evenodd"
      d="M0.669415 0.580131C0.245086 1.03927 0 1.74082 0 2.65909V35.2283C0 36.1465 0.245086 36.8481 0.684047 37.2889L0.797446 37.388L18.9704 19.1402V18.7325L0.782814 0.480957L0.669415 0.580131Z"
      fill="url(#paint0_linear_4310_25069)" />
    <path fill-rule="evenodd" clip-rule="evenodd"
      d="M25.0174 25.241L18.9561 19.1547V18.7286L25.0174 12.6423L25.1491 12.7231L32.3188 16.8149C34.371 17.9756 34.371 19.893 32.3188 21.0684L25.1491 25.1602L25.0174 25.241Z"
      fill="url(#paint1_linear_4310_25069)" />
    <path fill-rule="evenodd" clip-rule="evenodd"
      d="M25.1493 25.1597L18.9563 18.9412L0.669922 37.3029C1.33934 38.0228 2.46235 38.1036 3.71704 37.402L25.1493 25.1597Z"
      fill="url(#paint2_linear_4310_25069)" />
    <path fill-rule="evenodd" clip-rule="evenodd"
      d="M25.1493 12.723L3.71704 0.499013C2.46235 -0.22091 1.33568 -0.121737 0.669922 0.598186L18.9563 18.9415L25.1493 12.723Z"
      fill="url(#paint3_linear_4310_25069)" />
    <path opacity="0.2" fill-rule="evenodd" clip-rule="evenodd"
      d="M25.0178 25.0281L3.73171 37.1712C2.54285 37.8581 1.48202 37.8103 0.797969 37.1859L0.68457 37.2998L0.797969 37.399C1.48202 38.0197 2.54285 38.0711 3.73171 37.3843L25.1641 25.1603L25.0178 25.0281Z"
      fill="black" />
    <path opacity="0.12" fill-rule="evenodd" clip-rule="evenodd"
      d="M32.3187 20.8548L24.999 25.0275L25.1307 25.1597L32.3004 21.0679C33.3283 20.4802 33.8331 19.7088 33.8331 18.9412C33.7709 19.6464 33.2478 20.3149 32.3187 20.8548Z"
      fill="black" />
    <path opacity="0.25" fill-rule="evenodd" clip-rule="evenodd"
      d="M3.71654 0.712364L32.3185 17.0282C33.2476 17.5534 33.7707 18.2403 33.8512 18.9418C33.8512 18.1742 33.3464 17.4028 32.3185 16.8151L3.71654 0.499325C1.66439 -0.679733 0 0.304653 0 2.6591V2.87213C0 0.514018 1.66439 -0.452001 3.71654 0.712364Z"
      fill="black" />
    <defs>
      <linearGradient id="paint0_linear_4310_25069" x1="17.3404" y1="2.3077" x2="-11.7855" y2="10.0365"
        gradientUnits="userSpaceOnUse">
        <stop stop-color="#00A0FF" />
        <stop offset="0.00657" stop-color="#00A1FF" />
        <stop offset="0.2601" stop-color="#00BEFF" />
        <stop offset="0.5122" stop-color="#00D2FF" />
        <stop offset="0.7604" stop-color="#00DFFF" />
        <stop offset="1" stop-color="#00E3FF" />
      </linearGradient>
      <linearGradient id="paint1_linear_4310_25069" x1="34.995" y1="18.9417" x2="-0.498621" y2="18.9417"
        gradientUnits="userSpaceOnUse">
        <stop stop-color="#FFE000" />
        <stop offset="0.4087" stop-color="#FFBD00" />
        <stop offset="0.7754" stop-color="#FFA500" />
        <stop offset="1" stop-color="#FF9C00" />
      </linearGradient>
      <linearGradient id="paint2_linear_4310_25069" x1="21.7818" y1="22.3249" x2="-1.72983" y2="61.7346"
        gradientUnits="userSpaceOnUse">
        <stop stop-color="#FF3A44" />
        <stop offset="1" stop-color="#C31162" />
      </linearGradient>
      <linearGradient id="paint3_linear_4310_25069" x1="-3.93479" y1="-10.2532" x2="6.55472" y2="7.34784"
        gradientUnits="userSpaceOnUse">
        <stop stop-color="#32A071" />
        <stop offset="0.0685" stop-color="#2DA771" />
        <stop offset="0.4762" stop-color="#15CF74" />
        <stop offset="0.8009" stop-color="#06E775" />
        <stop offset="1" stop-color="#00F076" />
      </linearGradient>
    </defs>
  </symbol>
</svg>