<svg width="766" height="699" viewBox="0 0 766 699" fill="none" xmlns="http://www.w3.org/2000/svg">
<path fill-rule="evenodd" clip-rule="evenodd" d="M742.147 282.591C1236.59 -291.316 28.326 -699.575 74.7403 -171.846C117.495 314.279 -117.08 340.933 -665.475 -164.431L-665.305 -441.896C-345.448 -90.9714 -46.8364 -121.269 -175.337 -699.7L879.975 -699.052C878.911 -418.154 1110.88 -176.424 1364.63 -289.599C1394.11 -302.747 1431.1 -283.211 1431.08 -250.932L1431 -123.443C1430.99 -114.356 1427.84 -105.484 1422.17 -98.3844C1143.55 250.28 961.429 529.194 942.911 698.652L-666.004 697.665L-665.773 321.143C-357.463 569.071 284.519 813.77 742.147 282.591Z" fill="#222222"/>
</svg>
