<svg width="360" height="882" viewBox="0 0 360 882" fill="none" xmlns="http://www.w3.org/2000/svg">
<path fill-rule="evenodd" clip-rule="evenodd" d="M-86.9878 643.318C236.754 267.457 -554.374 0.0813582 -523.984 345.7C-495.99 664.071 -649.582 681.527 -1008.65 350.556L-1008.54 168.84C-799.109 398.666 -603.588 378.823 -687.726 -0.000469697L3.25702 0.423534C2.59491 175.272 139.765 326.949 296.018 277.913C326.818 268.247 364.104 288.001 364.084 320.281L364.052 372.558C364.047 381.643 360.909 390.498 355.244 397.601C174.52 624.178 56.5238 805.437 44.466 915.804L-1009 915.157L-1008.85 668.567C-806.976 830.939 -386.628 991.196 -86.9878 643.318Z" fill="#222222"/>
</svg>
