<svg width="925" height="491" viewBox="0 0 925 491" fill="none" xmlns="http://www.w3.org/2000/svg">
<path fill-rule="evenodd" clip-rule="evenodd" d="M610.772 446.986C835.764 185.833 285.951 0.0568726 307.072 240.197C326.527 461.406 219.785 473.534 -29.7589 243.571L-29.6814 117.312C115.868 276.998 251.749 263.212 193.276 1.75453e-05L673.489 0.294621C673.062 113.232 755.415 212.255 854.249 198.262C886.209 193.737 924.26 213.568 924.24 245.847L924.235 254.572C924.229 263.659 921.105 272.494 915.445 279.603C791.353 435.471 710.449 560.172 702.129 636.312L-29.9996 635.863L-29.8944 464.529C110.401 577.347 402.531 688.696 610.772 446.986Z" fill="#222222"/>
</svg>
