<svg viewBox="0 0 1515.39 1010.78" xmlns="http://www.w3.org/2000/svg" xmlns:xlink="http://www.w3.org/1999/xlink" width="1515.394043" height="1010.778809" fill="none" customFrame="#000000">
	<path id="Vector" d="M709.323 1017.24C294.442 1374.23 0 501.052 381.277 534.821C732.496 565.928 751.858 396.454 386.963 0L186.487 0C439.897 231.261 417.874 447.002 0 353.9L0 1116.39C195.704 1115.77 364.999 1271.68 303.431 1447.17C292.745 1477.63 312.456 1514.77 344.735 1514.77L411.753 1514.77C420.84 1514.77 429.654 1511.68 436.76 1506.01C687.401 1306.21 887.89 1175.74 1009.85 1162.48L1009.85 0L737.803 0C916.801 222.872 1093.32 686.829 709.323 1017.24Z" fill="rgb(25.7452,25.7452,25.7452)" fill-rule="evenodd" transform="matrix(0.000613483,-1,-1,-0.000613483,1514.77,1010.78)" />
</svg>
